<svg width="88" height="93" viewBox="0 0 88 93" fill="none" xmlns="http://www.w3.org/2000/svg">
<path d="M44 0.226497L38.2265 6L44 11.7735L49.7735 6L44 0.226497ZM43 6L43 8.16667L45 8.16667L45 6L43 6ZM43 12.5L43 16.8333L45 16.8333L45 12.5L43 12.5ZM43 21.1667L43 25.5L45 25.5L45 21.1667L43 21.1667ZM43 29.8333L43 32L45 32L45 29.8333L43 29.8333Z" fill="#3F6D6F"/>
<g clip-path="url(#clip0_57_497)">
<path d="M22.125 40.125C22.95 40.125 23.625 39.45 23.625 38.625C23.625 37.8 22.95 37.125 22.125 37.125C21.3 37.125 20.625 37.8 20.625 38.625C20.625 39.45 21.3 40.125 22.125 40.125ZM19.35 42.675L17.43 52.3575C17.3325 52.815 17.6925 53.25 18.165 53.25H18.225C18.5775 53.25 18.8775 53.01 18.96 52.665L20.175 47.25L21.75 48.75V52.5C21.75 52.9125 22.0875 53.25 22.5 53.25C22.9125 53.25 23.25 52.9125 23.25 52.5V48.27C23.25 47.8575 23.085 47.4675 22.785 47.1825L21.675 46.125L22.125 43.875C22.9275 44.805 24.09 45.4725 25.395 45.6825C25.845 45.75 26.25 45.39 26.25 44.9325C26.25 44.565 25.98 44.2575 25.6125 44.1975C24.4725 44.01 23.5275 43.335 23.025 42.45L22.275 41.25C21.855 40.5825 21.015 40.3125 20.2875 40.62L17.415 41.835C16.86 42.075 16.5 42.615 16.5 43.2225V45C16.5 45.4125 16.8375 45.75 17.25 45.75C17.6625 45.75 18 45.4125 18 45V43.2L19.35 42.675Z" fill="#3F6D6F"/>
</g>
<path d="M31.764 51H34.256V40.78H30.378V43.006H31.764V51ZM36.5517 40.766V46.856H38.8617C38.9877 46.38 39.3797 46.016 40.0517 46.016C40.9057 46.016 41.3677 46.506 41.3677 47.43C41.3677 48.312 40.9757 48.97 40.0657 48.97C39.2817 48.97 38.8757 48.494 38.7777 47.962H36.4397C36.5237 49.726 37.8537 51 40.1497 51C42.4177 51 43.6777 49.6 43.6777 47.444C43.6777 45.792 42.8237 44.098 40.5977 44.098C39.7857 44.098 39.0857 44.392 38.7217 44.798V42.866H43.0897V40.766H36.5517ZM58.9699 51H61.3499V46.436C61.3499 44.336 60.1039 43.104 58.1719 43.104C57.0379 43.104 56.0579 43.734 55.5399 44.56C55.0079 43.622 54.0559 43.104 52.8799 43.104C51.8579 43.104 51.0599 43.538 50.5979 44.168V43.188H48.2039V51H50.5979V46.758C50.5979 45.736 51.1859 45.176 52.0959 45.176C53.0059 45.176 53.5939 45.736 53.5939 46.758V51H55.9739V46.758C55.9739 45.736 56.5619 45.176 57.4719 45.176C58.3819 45.176 58.9699 45.736 58.9699 46.758V51ZM63.0243 51H65.4183V43.188H63.0243V51ZM64.2283 42.376C65.0683 42.376 65.6423 41.802 65.6423 41.088C65.6423 40.36 65.0683 39.786 64.2283 39.786C63.3743 39.786 62.8003 40.36 62.8003 41.088C62.8003 41.802 63.3743 42.376 64.2283 42.376ZM72.5432 51H74.9232V46.436C74.9232 44.336 73.7192 43.104 71.9132 43.104C70.8632 43.104 70.0232 43.566 69.5472 44.224V43.188H67.1532V51H69.5472V46.758C69.5472 45.694 70.1352 45.106 71.0452 45.106C71.9552 45.106 72.5432 45.694 72.5432 46.758V51Z" fill="#3F6D6F"/>
<path d="M44 92.7735L49.7735 87L44 81.2265L38.2265 87L44 92.7735ZM45 87L45 84.8333L43 84.8333L43 87L45 87ZM45 80.5L45 76.1667L43 76.1667L43 80.5L45 80.5ZM45 71.8333L45 67.5L43 67.5L43 71.8333L45 71.8333ZM45 63.1667L45 61L43 61L43 63.1667L45 63.1667Z" fill="#3F6D6F"/>
<defs>
<clipPath id="clip0_57_497">
<rect width="18" height="18" fill="white" transform="translate(12 36)"/>
</clipPath>
</defs>
</svg>
