<svg width="58" height="93" viewBox="0 0 58 93" fill="none" xmlns="http://www.w3.org/2000/svg">
<path d="M29 0.226497L23.2265 6L29 11.7735L34.7735 6L29 0.226497ZM28 6L28 8.16667L30 8.16667L30 6L28 6ZM28 12.5L28 16.8333L30 16.8333L30 12.5L28 12.5ZM28 21.1667L28 25.5L30 25.5L30 21.1667L28 21.1667ZM28 29.8333L28 32L30 32L30 29.8333L28 29.8333Z" fill="#3F6D6F"/>
<g clip-path="url(#clip0_1544_3035)">
<path d="M10.125 40.125C10.95 40.125 11.625 39.45 11.625 38.625C11.625 37.8 10.95 37.125 10.125 37.125C9.3 37.125 8.625 37.8 8.625 38.625C8.625 39.45 9.3 40.125 10.125 40.125ZM7.35 42.675L5.43 52.3575C5.3325 52.815 5.6925 53.25 6.165 53.25H6.225C6.5775 53.25 6.8775 53.01 6.96 52.665L8.175 47.25L9.75 48.75V52.5C9.75 52.9125 10.0875 53.25 10.5 53.25C10.9125 53.25 11.25 52.9125 11.25 52.5V48.27C11.25 47.8575 11.085 47.4675 10.785 47.1825L9.675 46.125L10.125 43.875C10.9275 44.805 12.09 45.4725 13.395 45.6825C13.845 45.75 14.25 45.39 14.25 44.9325C14.25 44.565 13.98 44.2575 13.6125 44.1975C12.4725 44.01 11.5275 43.335 11.025 42.45L10.275 41.25C9.855 40.5825 9.015 40.3125 8.2875 40.62L5.415 41.835C4.86 42.075 4.5 42.615 4.5 43.2225V45C4.5 45.4125 4.8375 45.75 5.25 45.75C5.6625 45.75 6 45.4125 6 45V43.2L7.35 42.675Z" fill="#3F6D6F"/>
</g>
<path d="M18.714 43.664C18.7513 42.6653 19.078 41.8953 19.694 41.354C20.31 40.8127 21.1453 40.542 22.2 40.542C22.9 40.542 23.4973 40.6633 23.992 40.906C24.496 41.1487 24.874 41.48 25.126 41.9C25.3873 42.32 25.518 42.7913 25.518 43.314C25.518 43.93 25.364 44.434 25.056 44.826C24.748 45.2087 24.3887 45.47 23.978 45.61V45.666C24.51 45.8433 24.93 46.1373 25.238 46.548C25.546 46.9587 25.7 47.486 25.7 48.13C25.7 48.7087 25.5647 49.222 25.294 49.67C25.0327 50.1087 24.6453 50.454 24.132 50.706C23.628 50.958 23.026 51.084 22.326 51.084C21.206 51.084 20.31 50.8087 19.638 50.258C18.9753 49.7073 18.6253 48.8767 18.588 47.766H20.912C20.9213 48.1767 21.038 48.5033 21.262 48.746C21.486 48.9793 21.8127 49.096 22.242 49.096C22.606 49.096 22.886 48.9933 23.082 48.788C23.2873 48.5733 23.39 48.2933 23.39 47.948C23.39 47.5 23.2453 47.178 22.956 46.982C22.676 46.7767 22.2233 46.674 21.598 46.674H21.15V44.728H21.598C22.074 44.728 22.4567 44.6487 22.746 44.49C23.0447 44.322 23.194 44.028 23.194 43.608C23.194 43.272 23.1007 43.0107 22.914 42.824C22.7273 42.6373 22.4707 42.544 22.144 42.544C21.7893 42.544 21.5233 42.6513 21.346 42.866C21.178 43.0807 21.08 43.3467 21.052 43.664H18.714ZM40.2794 43.104C41.25 43.104 42.02 43.398 42.5894 43.986C43.168 44.574 43.4574 45.3907 43.4574 46.436V51H41.0774V46.758C41.0774 46.254 40.942 45.8667 40.6714 45.596C40.41 45.316 40.046 45.176 39.5794 45.176C39.1127 45.176 38.744 45.316 38.4734 45.596C38.212 45.8667 38.0814 46.254 38.0814 46.758V51H35.7014V46.758C35.7014 46.254 35.566 45.8667 35.2954 45.596C35.034 45.316 34.67 45.176 34.2034 45.176C33.7367 45.176 33.368 45.316 33.0974 45.596C32.836 45.8667 32.7054 46.254 32.7054 46.758V51H30.3114V43.188H32.7054V44.168C32.948 43.8413 33.2654 43.5847 33.6574 43.398C34.0494 43.202 34.4927 43.104 34.9874 43.104C35.5754 43.104 36.098 43.23 36.5554 43.482C37.022 43.734 37.386 44.0933 37.6474 44.56C37.918 44.1307 38.2867 43.7807 38.7534 43.51C39.22 43.2393 39.7287 43.104 40.2794 43.104ZM46.3357 42.376C45.9157 42.376 45.5703 42.2547 45.2997 42.012C45.0383 41.76 44.9077 41.452 44.9077 41.088C44.9077 40.7147 45.0383 40.4067 45.2997 40.164C45.5703 39.912 45.9157 39.786 46.3357 39.786C46.7463 39.786 47.0823 39.912 47.3437 40.164C47.6143 40.4067 47.7497 40.7147 47.7497 41.088C47.7497 41.452 47.6143 41.76 47.3437 42.012C47.0823 42.2547 46.7463 42.376 46.3357 42.376ZM47.5257 43.188V51H45.1317V43.188H47.5257ZM54.0206 43.104C54.9352 43.104 55.6632 43.4027 56.2046 44C56.7552 44.588 57.0306 45.4 57.0306 46.436V51H54.6506V46.758C54.6506 46.2353 54.5152 45.8293 54.2446 45.54C53.9739 45.2507 53.6099 45.106 53.1526 45.106C52.6952 45.106 52.3312 45.2507 52.0606 45.54C51.7899 45.8293 51.6546 46.2353 51.6546 46.758V51H49.2606V43.188H51.6546V44.224C51.8972 43.8787 52.2239 43.608 52.6346 43.412C53.0452 43.2067 53.5072 43.104 54.0206 43.104Z" fill="#3F6D6F"/>
<path d="M29 92.7735L34.7735 87L29 81.2265L23.2265 87L29 92.7735ZM30 87L30 84.8333L28 84.8333L28 87L30 87ZM30 80.5L30 76.1667L28 76.1667L28 80.5L30 80.5ZM30 71.8333L30 67.5L28 67.5L28 71.8333L30 71.8333ZM30 63.1667L30 61L28 61L28 63.1667L30 63.1667Z" fill="#3F6D6F"/>
<defs>
<clipPath id="clip0_1544_3035">
<rect width="18" height="18" fill="white" transform="translate(0 36)"/>
</clipPath>
</defs>
</svg>
