<svg width="88" height="93" viewBox="0 0 88 93" fill="none" xmlns="http://www.w3.org/2000/svg">
<path d="M44 0.226497L38.2265 6L44 11.7735L49.7735 6L44 0.226497ZM43 6L43 8.16667L45 8.16667L45 6L43 6ZM43 12.5L43 16.8333L45 16.8333L45 12.5L43 12.5ZM43 21.1667L43 25.5L45 25.5L45 21.1667L43 21.1667ZM43 29.8333L43 32L45 32L45 29.8333L43 29.8333Z" fill="#3F6D6F"/>
<g clip-path="url(#clip0_60_814)">
<path d="M24.625 40.125C25.45 40.125 26.125 39.45 26.125 38.625C26.125 37.8 25.45 37.125 24.625 37.125C23.8 37.125 23.125 37.8 23.125 38.625C23.125 39.45 23.8 40.125 24.625 40.125ZM21.85 42.675L19.93 52.3575C19.8325 52.815 20.1925 53.25 20.665 53.25H20.725C21.0775 53.25 21.3775 53.01 21.46 52.665L22.675 47.25L24.25 48.75V52.5C24.25 52.9125 24.5875 53.25 25 53.25C25.4125 53.25 25.75 52.9125 25.75 52.5V48.27C25.75 47.8575 25.585 47.4675 25.285 47.1825L24.175 46.125L24.625 43.875C25.4275 44.805 26.59 45.4725 27.895 45.6825C28.345 45.75 28.75 45.39 28.75 44.9325C28.75 44.565 28.48 44.2575 28.1125 44.1975C26.9725 44.01 26.0275 43.335 25.525 42.45L24.775 41.25C24.355 40.5825 23.515 40.3125 22.7875 40.62L19.915 41.835C19.36 42.075 19 42.615 19 43.2225V45C19 45.4125 19.3375 45.75 19.75 45.75C20.1625 45.75 20.5 45.4125 20.5 45V43.2L21.85 42.675Z" fill="#3F6D6F"/>
</g>
<path d="M34.81 45.512C33.83 45.974 33.256 46.842 33.256 48.004C33.256 50.048 34.95 51.196 37.036 51.196C39.122 51.196 40.816 50.048 40.816 48.004C40.816 46.842 40.242 45.988 39.248 45.512C40.018 45.106 40.564 44.364 40.564 43.314C40.564 41.858 39.444 40.57 37.036 40.57C34.628 40.57 33.494 41.858 33.494 43.314C33.494 44.392 34.026 45.092 34.81 45.512ZM37.036 44.868C36.35 44.868 35.832 44.434 35.832 43.692C35.832 42.908 36.322 42.474 37.036 42.474C37.75 42.474 38.24 42.908 38.24 43.678C38.24 44.42 37.722 44.868 37.036 44.868ZM37.036 46.548C37.89 46.548 38.478 47.052 38.478 47.892C38.478 48.648 37.946 49.236 37.036 49.236C36.112 49.236 35.566 48.662 35.566 47.892C35.566 47.024 36.182 46.548 37.036 46.548ZM56.1789 51H58.5589V46.436C58.5589 44.336 57.3129 43.104 55.3809 43.104C54.2469 43.104 53.2669 43.734 52.7489 44.56C52.2169 43.622 51.2649 43.104 50.0889 43.104C49.0669 43.104 48.2689 43.538 47.8069 44.168V43.188H45.4129V51H47.8069V46.758C47.8069 45.736 48.3949 45.176 49.3049 45.176C50.2149 45.176 50.8029 45.736 50.8029 46.758V51H53.1829V46.758C53.1829 45.736 53.7709 45.176 54.6809 45.176C55.5909 45.176 56.1789 45.736 56.1789 46.758V51ZM60.2332 51H62.6272V43.188H60.2332V51ZM61.4372 42.376C62.2772 42.376 62.8512 41.802 62.8512 41.088C62.8512 40.36 62.2772 39.786 61.4372 39.786C60.5832 39.786 60.0092 40.36 60.0092 41.088C60.0092 41.802 60.5832 42.376 61.4372 42.376ZM69.7521 51H72.1321V46.436C72.1321 44.336 70.9281 43.104 69.1221 43.104C68.0721 43.104 67.2321 43.566 66.7561 44.224V43.188H64.3621V51H66.7561V46.758C66.7561 45.694 67.3441 45.106 68.2541 45.106C69.1641 45.106 69.7521 45.694 69.7521 46.758V51Z" fill="#3F6D6F"/>
<path d="M44 92.7735L49.7735 87L44 81.2265L38.2265 87L44 92.7735ZM45 87L45 84.8333L43 84.8333L43 87L45 87ZM45 80.5L45 76.1667L43 76.1667L43 80.5L45 80.5ZM45 71.8333L45 67.5L43 67.5L43 71.8333L45 71.8333ZM45 63.1667L45 61L43 61L43 63.1667L45 63.1667Z" fill="#3F6D6F"/>
<defs>
<clipPath id="clip0_60_814">
<rect width="18" height="18" fill="white" transform="translate(14.5 36)"/>
</clipPath>
</defs>
</svg>
