<svg width="88" height="93" viewBox="0 0 88 93" fill="none" xmlns="http://www.w3.org/2000/svg">
<path d="M44 0.226497L38.2265 6L44 11.7735L49.7735 6L44 0.226497ZM43 6L43 8.16667L45 8.16667L45 6L43 6ZM43 12.5L43 16.8333L45 16.8333L45 12.5L43 12.5ZM43 21.1667L43 25.5L45 25.5L45 21.1667L43 21.1667ZM43 29.8333L43 32L45 32L45 29.8333L43 29.8333Z" fill="#3F6D6F"/>
<g clip-path="url(#clip0_170_3533)">
<path d="M24.625 40.125C25.45 40.125 26.125 39.45 26.125 38.625C26.125 37.8 25.45 37.125 24.625 37.125C23.8 37.125 23.125 37.8 23.125 38.625C23.125 39.45 23.8 40.125 24.625 40.125ZM21.85 42.675L19.93 52.3575C19.8325 52.815 20.1925 53.25 20.665 53.25H20.725C21.0775 53.25 21.3775 53.01 21.46 52.665L22.675 47.25L24.25 48.75V52.5C24.25 52.9125 24.5875 53.25 25 53.25C25.4125 53.25 25.75 52.9125 25.75 52.5V48.27C25.75 47.8575 25.585 47.4675 25.285 47.1825L24.175 46.125L24.625 43.875C25.4275 44.805 26.59 45.4725 27.895 45.6825C28.345 45.75 28.75 45.39 28.75 44.9325C28.75 44.565 28.48 44.2575 28.1125 44.1975C26.9725 44.01 26.0275 43.335 25.525 42.45L24.775 41.25C24.355 40.5825 23.515 40.3125 22.7875 40.62L19.915 41.835C19.36 42.075 19 42.615 19 43.2225V45C19 45.4125 19.3375 45.75 19.75 45.75C20.1625 45.75 20.5 45.4125 20.5 45V43.2L21.85 42.675Z" fill="#3F6D6F"/>
</g>
<path d="M40.326 42.866H35.958V44.798C36.1447 44.5927 36.406 44.4247 36.742 44.294C37.078 44.1633 37.442 44.098 37.834 44.098C38.534 44.098 39.1127 44.2567 39.57 44.574C40.0367 44.8913 40.3773 45.302 40.592 45.806C40.8067 46.31 40.914 46.856 40.914 47.444C40.914 48.536 40.606 49.404 39.99 50.048C39.374 50.6827 38.506 51 37.386 51C36.6393 51 35.9907 50.874 35.44 50.622C34.8893 50.3607 34.4647 50.0013 34.166 49.544C33.8673 49.0867 33.704 48.5593 33.676 47.962H36.014C36.07 48.2513 36.2053 48.494 36.42 48.69C36.6347 48.8767 36.9287 48.97 37.302 48.97C37.7407 48.97 38.0673 48.83 38.282 48.55C38.4967 48.27 38.604 47.8967 38.604 47.43C38.604 46.9727 38.492 46.6227 38.268 46.38C38.044 46.1373 37.7173 46.016 37.288 46.016C36.9707 46.016 36.7093 46.0953 36.504 46.254C36.2987 46.4033 36.1633 46.604 36.098 46.856H33.788V40.766H40.326V42.866ZM55.4083 43.104C56.3789 43.104 57.1489 43.398 57.7183 43.986C58.2969 44.574 58.5863 45.3907 58.5863 46.436V51H56.2063V46.758C56.2063 46.254 56.0709 45.8667 55.8003 45.596C55.5389 45.316 55.1749 45.176 54.7083 45.176C54.2416 45.176 53.8729 45.316 53.6023 45.596C53.3409 45.8667 53.2103 46.254 53.2103 46.758V51H50.8303V46.758C50.8303 46.254 50.6949 45.8667 50.4243 45.596C50.1629 45.316 49.7989 45.176 49.3323 45.176C48.8656 45.176 48.4969 45.316 48.2263 45.596C47.9649 45.8667 47.8343 46.254 47.8343 46.758V51H45.4403V43.188H47.8343V44.168C48.0769 43.8413 48.3943 43.5847 48.7863 43.398C49.1783 43.202 49.6216 43.104 50.1163 43.104C50.7043 43.104 51.2269 43.23 51.6843 43.482C52.1509 43.734 52.5149 44.0933 52.7763 44.56C53.0469 44.1307 53.4156 43.7807 53.8823 43.51C54.3489 43.2393 54.8576 43.104 55.4083 43.104ZM61.4646 42.376C61.0446 42.376 60.6992 42.2547 60.4286 42.012C60.1672 41.76 60.0366 41.452 60.0366 41.088C60.0366 40.7147 60.1672 40.4067 60.4286 40.164C60.6992 39.912 61.0446 39.786 61.4646 39.786C61.8752 39.786 62.2112 39.912 62.4726 40.164C62.7432 40.4067 62.8786 40.7147 62.8786 41.088C62.8786 41.452 62.7432 41.76 62.4726 42.012C62.2112 42.2547 61.8752 42.376 61.4646 42.376ZM62.6546 43.188V51H60.2606V43.188H62.6546ZM69.1495 43.104C70.0642 43.104 70.7922 43.4027 71.3335 44C71.8842 44.588 72.1595 45.4 72.1595 46.436V51H69.7795V46.758C69.7795 46.2353 69.6442 45.8293 69.3735 45.54C69.1028 45.2507 68.7388 45.106 68.2815 45.106C67.8242 45.106 67.4602 45.2507 67.1895 45.54C66.9188 45.8293 66.7835 46.2353 66.7835 46.758V51H64.3895V43.188H66.7835V44.224C67.0262 43.8787 67.3528 43.608 67.7635 43.412C68.1742 43.2067 68.6362 43.104 69.1495 43.104Z" fill="#3F6D6F"/>
<path d="M44 92.7735L49.7735 87L44 81.2265L38.2265 87L44 92.7735ZM45 87L45 84.8333L43 84.8333L43 87L45 87ZM45 80.5L45 76.1667L43 76.1667L43 80.5L45 80.5ZM45 71.8333L45 67.5L43 67.5L43 71.8333L45 71.8333ZM45 63.1667L45 61L43 61L43 63.1667L45 63.1667Z" fill="#3F6D6F"/>
<defs>
<clipPath id="clip0_170_3533">
<rect width="18" height="18" fill="white" transform="translate(14.5 36)"/>
</clipPath>
</defs>
</svg>
