<svg width="88" height="93" viewBox="0 0 88 93" fill="none" xmlns="http://www.w3.org/2000/svg">
<path d="M44 0.226497L38.2265 6L44 11.7735L49.7735 6L44 0.226497ZM43 6L43 8.16667L45 8.16667L45 6L43 6ZM43 12.5L43 16.8333L45 16.8333L45 12.5L43 12.5ZM43 21.1667L43 25.5L45 25.5L45 21.1667L43 21.1667ZM43 29.8333L43 32L45 32L45 29.8333L43 29.8333Z" fill="#3F6D6F"/>
<g clip-path="url(#clip0_52_394)">
<path d="M24.125 40.125C24.95 40.125 25.625 39.45 25.625 38.625C25.625 37.8 24.95 37.125 24.125 37.125C23.3 37.125 22.625 37.8 22.625 38.625C22.625 39.45 23.3 40.125 24.125 40.125ZM21.35 42.675L19.43 52.3575C19.3325 52.815 19.6925 53.25 20.165 53.25H20.225C20.5775 53.25 20.8775 53.01 20.96 52.665L22.175 47.25L23.75 48.75V52.5C23.75 52.9125 24.0875 53.25 24.5 53.25C24.9125 53.25 25.25 52.9125 25.25 52.5V48.27C25.25 47.8575 25.085 47.4675 24.785 47.1825L23.675 46.125L24.125 43.875C24.9275 44.805 26.09 45.4725 27.395 45.6825C27.845 45.75 28.25 45.39 28.25 44.9325C28.25 44.565 27.98 44.2575 27.6125 44.1975C26.4725 44.01 25.5275 43.335 25.025 42.45L24.275 41.25C23.855 40.5825 23.015 40.3125 22.2875 40.62L19.415 41.835C18.86 42.075 18.5 42.615 18.5 43.2225V45C18.5 45.4125 18.8375 45.75 19.25 45.75C19.6625 45.75 20 45.4125 20 45V43.2L21.35 42.675Z" fill="#3F6D6F"/>
</g>
<path d="M33.764 51H36.256V40.78H32.378V43.006H33.764V51ZM39.0277 51H41.5197V40.78H37.6417V43.006H39.0277V51ZM57.1281 51H59.5081V46.436C59.5081 44.336 58.2621 43.104 56.3301 43.104C55.1961 43.104 54.2161 43.734 53.6981 44.56C53.1661 43.622 52.2141 43.104 51.0381 43.104C50.0161 43.104 49.2181 43.538 48.7561 44.168V43.188H46.3621V51H48.7561V46.758C48.7561 45.736 49.3441 45.176 50.2541 45.176C51.1641 45.176 51.7521 45.736 51.7521 46.758V51H54.1321V46.758C54.1321 45.736 54.7201 45.176 55.6301 45.176C56.5401 45.176 57.1281 45.736 57.1281 46.758V51ZM61.1825 51H63.5765V43.188H61.1825V51ZM62.3865 42.376C63.2265 42.376 63.8005 41.802 63.8005 41.088C63.8005 40.36 63.2265 39.786 62.3865 39.786C61.5325 39.786 60.9585 40.36 60.9585 41.088C60.9585 41.802 61.5325 42.376 62.3865 42.376ZM70.7014 51H73.0814V46.436C73.0814 44.336 71.8774 43.104 70.0714 43.104C69.0214 43.104 68.1814 43.566 67.7054 44.224V43.188H65.3114V51H67.7054V46.758C67.7054 45.694 68.2934 45.106 69.2034 45.106C70.1134 45.106 70.7014 45.694 70.7014 46.758V51Z" fill="#3F6D6F"/>
<path d="M44 92.7735L49.7735 87L44 81.2265L38.2265 87L44 92.7735ZM45 87L45 84.8333L43 84.8333L43 87L45 87ZM45 80.5L45 76.1667L43 76.1667L43 80.5L45 80.5ZM45 71.8333L45 67.5L43 67.5L43 71.8333L45 71.8333ZM45 63.1667L45 61L43 61L43 63.1667L45 63.1667Z" fill="#3F6D6F"/>
<defs>
<clipPath id="clip0_52_394">
<rect width="18" height="18" fill="white" transform="translate(14 36)"/>
</clipPath>
</defs>
</svg>
