<svg width="88" height="93" viewBox="0 0 88 93" fill="none" xmlns="http://www.w3.org/2000/svg">
<path d="M44 0.226497L38.2265 6L44 11.7735L49.7735 6L44 0.226497ZM43 6L43 8.16667L45 8.16667L45 6L43 6ZM43 12.5L43 16.8333L45 16.8333L45 12.5L43 12.5ZM43 21.1667L43 25.5L45 25.5L45 21.1667L43 21.1667ZM43 29.8333L43 32L45 32L45 29.8333L43 29.8333Z" fill="#3F6D6F"/>
<g clip-path="url(#clip0_52_390)">
<path d="M22.125 40.125C22.95 40.125 23.625 39.45 23.625 38.625C23.625 37.8 22.95 37.125 22.125 37.125C21.3 37.125 20.625 37.8 20.625 38.625C20.625 39.45 21.3 40.125 22.125 40.125ZM19.35 42.675L17.43 52.3575C17.3325 52.815 17.6925 53.25 18.165 53.25H18.225C18.5775 53.25 18.8775 53.01 18.96 52.665L20.175 47.25L21.75 48.75V52.5C21.75 52.9125 22.0875 53.25 22.5 53.25C22.9125 53.25 23.25 52.9125 23.25 52.5V48.27C23.25 47.8575 23.085 47.4675 22.785 47.1825L21.675 46.125L22.125 43.875C22.9275 44.805 24.09 45.4725 25.395 45.6825C25.845 45.75 26.25 45.39 26.25 44.9325C26.25 44.565 25.98 44.2575 25.6125 44.1975C24.4725 44.01 23.5275 43.335 23.025 42.45L22.275 41.25C21.855 40.5825 21.015 40.3125 20.2875 40.62L17.415 41.835C16.86 42.075 16.5 42.615 16.5 43.2225V45C16.5 45.4125 16.8375 45.75 17.25 45.75C17.6625 45.75 18 45.4125 18 45V43.2L19.35 42.675Z" fill="#3F6D6F"/>
</g>
<path d="M31.764 51H34.256V40.78H30.378V43.006H31.764V51ZM35.8937 45.75C35.8937 48.774 36.9157 50.958 39.8277 50.958C42.7397 50.958 43.7617 48.774 43.7617 45.75C43.7617 42.754 42.7397 40.57 39.8277 40.57C36.9157 40.57 35.8937 42.754 35.8937 45.75ZM41.4097 45.75C41.4097 47.374 41.2417 48.718 39.8277 48.718C38.4137 48.718 38.2457 47.374 38.2457 45.75C38.2457 44.182 38.4137 42.81 39.8277 42.81C41.2417 42.81 41.4097 44.182 41.4097 45.75ZM58.9973 51H61.3773V46.436C61.3773 44.336 60.1313 43.104 58.1993 43.104C57.0653 43.104 56.0853 43.734 55.5673 44.56C55.0353 43.622 54.0833 43.104 52.9073 43.104C51.8853 43.104 51.0873 43.538 50.6253 44.168V43.188H48.2313V51H50.6253V46.758C50.6253 45.736 51.2133 45.176 52.1233 45.176C53.0333 45.176 53.6213 45.736 53.6213 46.758V51H56.0013V46.758C56.0013 45.736 56.5893 45.176 57.4993 45.176C58.4093 45.176 58.9973 45.736 58.9973 46.758V51ZM63.0516 51H65.4456V43.188H63.0516V51ZM64.2556 42.376C65.0956 42.376 65.6696 41.802 65.6696 41.088C65.6696 40.36 65.0956 39.786 64.2556 39.786C63.4016 39.786 62.8276 40.36 62.8276 41.088C62.8276 41.802 63.4016 42.376 64.2556 42.376ZM72.5705 51H74.9505V46.436C74.9505 44.336 73.7465 43.104 71.9405 43.104C70.8905 43.104 70.0505 43.566 69.5745 44.224V43.188H67.1805V51H69.5745V46.758C69.5745 45.694 70.1625 45.106 71.0725 45.106C71.9825 45.106 72.5705 45.694 72.5705 46.758V51Z" fill="#3F6D6F"/>
<path d="M44 92.7735L49.7735 87L44 81.2265L38.2265 87L44 92.7735ZM45 87L45 84.8333L43 84.8333L43 87L45 87ZM45 80.5L45 76.1667L43 76.1667L43 80.5L45 80.5ZM45 71.8333L45 67.5L43 67.5L43 71.8333L45 71.8333ZM45 63.1667L45 61L43 61L43 63.1667L45 63.1667Z" fill="#3F6D6F"/>
<defs>
<clipPath id="clip0_52_390">
<rect width="18" height="18" fill="white" transform="translate(12 36)"/>
</clipPath>
</defs>
</svg>
