<svg width="88" height="93" viewBox="0 0 88 93" fill="none" xmlns="http://www.w3.org/2000/svg">
<path d="M44 0.226497L38.2265 6L44 11.7735L49.7735 6L44 0.226497ZM43 6L43 8.16667L45 8.16667L45 6L43 6ZM43 12.5L43 16.8333L45 16.8333L45 12.5L43 12.5ZM43 21.1667L43 25.5L45 25.5L45 21.1667L43 21.1667ZM43 29.8333L43 32L45 32L45 29.8333L43 29.8333Z" fill="#3F6D6F"/>
<g clip-path="url(#clip0_170_3531)">
<path d="M25.125 40.125C25.95 40.125 26.625 39.45 26.625 38.625C26.625 37.8 25.95 37.125 25.125 37.125C24.3 37.125 23.625 37.8 23.625 38.625C23.625 39.45 24.3 40.125 25.125 40.125ZM22.35 42.675L20.43 52.3575C20.3325 52.815 20.6925 53.25 21.165 53.25H21.225C21.5775 53.25 21.8775 53.01 21.96 52.665L23.175 47.25L24.75 48.75V52.5C24.75 52.9125 25.0875 53.25 25.5 53.25C25.9125 53.25 26.25 52.9125 26.25 52.5V48.27C26.25 47.8575 26.085 47.4675 25.785 47.1825L24.675 46.125L25.125 43.875C25.9275 44.805 27.09 45.4725 28.395 45.6825C28.845 45.75 29.25 45.39 29.25 44.9325C29.25 44.565 28.98 44.2575 28.6125 44.1975C27.4725 44.01 26.5275 43.335 26.025 42.45L25.275 41.25C24.855 40.5825 24.015 40.3125 23.2875 40.62L20.415 41.835C19.86 42.075 19.5 42.615 19.5 43.2225V45C19.5 45.4125 19.8375 45.75 20.25 45.75C20.6625 45.75 21 45.4125 21 45V43.2L22.35 42.675Z" fill="#3F6D6F"/>
</g>
<path d="M33.546 49.082C33.8633 48.83 34.008 48.7133 33.98 48.732C34.8947 47.976 35.6133 47.3553 36.136 46.87C36.668 46.3847 37.116 45.876 37.48 45.344C37.844 44.812 38.026 44.294 38.026 43.79C38.026 43.4073 37.9373 43.1087 37.76 42.894C37.5827 42.6793 37.3167 42.572 36.962 42.572C36.6073 42.572 36.3273 42.7073 36.122 42.978C35.926 43.2393 35.828 43.6127 35.828 44.098H33.518C33.5367 43.3047 33.7047 42.642 34.022 42.11C34.3487 41.578 34.7733 41.186 35.296 40.934C35.828 40.682 36.416 40.556 37.06 40.556C38.1707 40.556 39.006 40.8407 39.566 41.41C40.1353 41.9793 40.42 42.7213 40.42 43.636C40.42 44.6347 40.0793 45.5633 39.398 46.422C38.7167 47.2713 37.8487 48.102 36.794 48.914H40.574V50.86H33.546V49.082ZM54.8008 43.104C55.7715 43.104 56.5415 43.398 57.1108 43.986C57.6895 44.574 57.9788 45.3907 57.9788 46.436V51H55.5988V46.758C55.5988 46.254 55.4635 45.8667 55.1928 45.596C54.9315 45.316 54.5675 45.176 54.1008 45.176C53.6342 45.176 53.2655 45.316 52.9948 45.596C52.7335 45.8667 52.6028 46.254 52.6028 46.758V51H50.2228V46.758C50.2228 46.254 50.0875 45.8667 49.8168 45.596C49.5555 45.316 49.1915 45.176 48.7248 45.176C48.2582 45.176 47.8895 45.316 47.6188 45.596C47.3575 45.8667 47.2268 46.254 47.2268 46.758V51H44.8328V43.188H47.2268V44.168C47.4695 43.8413 47.7868 43.5847 48.1788 43.398C48.5708 43.202 49.0142 43.104 49.5088 43.104C50.0968 43.104 50.6195 43.23 51.0768 43.482C51.5435 43.734 51.9075 44.0933 52.1688 44.56C52.4395 44.1307 52.8082 43.7807 53.2748 43.51C53.7415 43.2393 54.2502 43.104 54.8008 43.104ZM60.8572 42.376C60.4372 42.376 60.0918 42.2547 59.8212 42.012C59.5598 41.76 59.4292 41.452 59.4292 41.088C59.4292 40.7147 59.5598 40.4067 59.8212 40.164C60.0918 39.912 60.4372 39.786 60.8572 39.786C61.2678 39.786 61.6038 39.912 61.8652 40.164C62.1358 40.4067 62.2712 40.7147 62.2712 41.088C62.2712 41.452 62.1358 41.76 61.8652 42.012C61.6038 42.2547 61.2678 42.376 60.8572 42.376ZM62.0472 43.188V51H59.6532V43.188H62.0472ZM68.5421 43.104C69.4567 43.104 70.1847 43.4027 70.7261 44C71.2767 44.588 71.5521 45.4 71.5521 46.436V51H69.1721V46.758C69.1721 46.2353 69.0367 45.8293 68.7661 45.54C68.4954 45.2507 68.1314 45.106 67.6741 45.106C67.2167 45.106 66.8527 45.2507 66.5821 45.54C66.3114 45.8293 66.1761 46.2353 66.1761 46.758V51H63.7821V43.188H66.1761V44.224C66.4187 43.8787 66.7454 43.608 67.1561 43.412C67.5667 43.2067 68.0287 43.104 68.5421 43.104Z" fill="#3F6D6F"/>
<path d="M44 92.7735L49.7735 87L44 81.2265L38.2265 87L44 92.7735ZM45 87L45 84.8333L43 84.8333L43 87L45 87ZM45 80.5L45 76.1667L43 76.1667L43 80.5L45 80.5ZM45 71.8333L45 67.5L43 67.5L43 71.8333L45 71.8333ZM45 63.1667L45 61L43 61L43 63.1667L45 63.1667Z" fill="#3F6D6F"/>
<defs>
<clipPath id="clip0_170_3531">
<rect width="18" height="18" fill="white" transform="translate(15 36)"/>
</clipPath>
</defs>
</svg>
